<svg version="1.2" baseProfile="tiny-ps" xmlns="http://www.w3.org/2000/svg" viewBox="0 0 685 150" width="685" height="150">
	<title>New Project</title>
	<style>
		tspan { white-space:pre }
		.shp0 { fill: #1d3059 } 
		.shp1 { fill: #3bb4ac } 
		.shp2 { fill: #e85227 } 
	</style>
	<path id="&lt;Path&gt;" class="shp0" d="M80.79 13.75L141.64 41.12C122.37 56.47 109.5 72.61 103.04 89.53C107.69 69.4 115.97 53.94 127.87 43.17L83.44 21.95L81.37 26.29L75.55 23.46L80.79 13.75Z" />
	<path id="&lt;Path&gt;" class="shp1" d="M31.38 28.58L88.23 53.12C82.62 62.36 78.91 75.34 77.1 92.06C75.81 91.38 74.6 90.84 73.48 90.44C72.1 83.84 73.48 72.49 77.62 56.37L35.71 37.51C35.02 44.7 34.74 52.68 34.87 61.44C33.32 59.75 31.94 58.16 30.73 56.68C30.09 47.23 30.3 37.87 31.38 28.58Z" />
	<path id="&lt;Path&gt;" class="shp0" d="M45 81.1C81.65 111.16 134.82 117.4 116.46 74.92C138.63 117.57 98.94 115.95 85.42 113.5C71.89 111.04 51.05 100.53 35.55 88.15C20.05 75.76 5.31 54.81 6 39.24C6.69 23.68 19.12 18.08 42.08 21.94C6.75 17.94 8.34 51.05 45 81.1Z" />
	<path id="&lt;Path&gt;" class="shp2" d="M58.03 35.51L51.24 32.38L56.54 20.08L112.99 46.24C102.65 56.94 95.02 72.71 90.1 93.57C89.76 93.45 89.35 93.35 88.87 93.27C90.21 75.02 94.11 60.35 100.58 49.26L61 29.61L58.03 35.51Z" />
	<path id="&lt;Path&gt;" class="shp0" d="M168.67 111.9L168.67 118.46C166.78 118.73 165.25 118.92 163.18 118.92C152.48 118.92 148.61 116.31 148.61 103.54L148.61 76.29L141.42 76.29L141.42 69.81L148.61 69.81L148.61 58.3L156.35 58.3L156.35 69.81L168.4 69.81L168.4 76.29L156.35 76.29L156.35 103.09C156.35 110.64 157.43 112.44 163.36 112.44C165.52 112.44 166.96 112.26 168.67 111.9Z" />
	<path id="&lt;Compound Path&gt;" fill-rule="evenodd" class="shp0" d="M215.53 94.9L182.61 96.97C182.7 107.58 186.39 112.44 198.17 112.44C203.48 112.44 209.68 111.09 213.37 109.29L213.37 116.4C210.58 117.83 203.93 119.27 197 119.27C182.7 119.27 174.52 113.43 174.52 94.09C174.52 74.76 182.7 68.91 196.55 68.91C213.1 68.91 215.98 79.79 215.98 89.24C215.98 90.58 215.8 92.65 215.53 94.9ZM208.33 89.33C208.33 81.86 207.07 75.3 196.55 75.3C185.4 75.3 182.88 81.32 182.61 91.21L208.33 89.33Z" />
	<path id="&lt;Path&gt;" class="shp0" d="M260.93 118.37L250.95 118.37L233.23 95.71L230.62 95.71L230.62 118.37L222.89 118.37L222.89 50.02L230.62 50.02L230.62 89.68L233.41 89.68L250.23 69.81L259.85 69.81L239.44 92.38L260.93 118.37Z" />
	<path id="&lt;Path&gt;" class="shp0" d="M267.65 108.57L267.65 50.02L275.38 50.02L275.38 106.59C275.38 111.45 276.73 112.44 279.88 112.44C280.96 112.44 282.31 112.35 283.57 111.99L283.57 118.37C282.13 118.73 280.6 118.91 278.44 118.91C271.25 118.91 267.65 115.86 267.65 108.57Z" />
	<path id="&lt;Compound Path&gt;" class="shp0" d="M290.83 69.81L298.57 69.81L298.57 118.37L290.83 118.37L290.83 69.81ZM290.11 56.32C290.11 52.27 291.37 51.73 294.79 51.73C298.03 51.73 299.37 52.27 299.37 56.32C299.37 60.28 298.03 60.91 294.79 60.91C291.37 60.91 290.11 60.28 290.11 56.32Z" />
	<path id="&lt;Path&gt;" class="shp0" d="M321.92 69.81L333.35 69.81L333.35 76.19L321.92 76.19L321.92 118.37L314.19 118.37L314.19 76.19L306.1 76.19L306.1 69.81L314.19 69.81L314.19 69.36C314.19 52.54 320.67 49.66 330.56 49.66C332.36 49.66 334.25 49.84 335.95 50.11L335.95 56.32C334.61 56.05 332.63 55.87 330.56 55.87C323.9 55.87 322.01 58.75 321.92 69.81Z" />
	<path id="&lt;Compound Path&gt;" class="shp0" d="M342.31 69.81L350.05 69.81L350.05 118.37L342.31 118.37L342.31 69.81ZM341.59 56.32C341.59 52.27 342.85 51.73 346.27 51.73C349.51 51.73 350.85 52.27 350.85 56.32C350.85 60.28 349.51 60.91 346.27 60.91C342.85 60.91 341.59 60.28 341.59 56.32Z" />
	<path id="&lt;Path&gt;" class="shp0" d="M425.79 84.83L425.79 118.38L418.06 118.38L418.06 87.62C418.06 80.15 415.99 75.84 408.7 75.84C403.04 75.84 398.18 77.45 396.11 84.38L396.11 84.74L396.11 118.38L388.38 118.38L388.38 87.62C388.38 80.15 386.58 75.84 379.47 75.84C373.45 75.84 369.04 77.18 366.62 84.65L366.62 118.38L358.88 118.38L358.88 69.81L366.62 69.81L366.62 76.2C369.58 70.44 374.8 68.91 380.64 68.91C388.29 68.91 392.69 71.97 394.76 76.82C397.64 70.53 403.94 68.91 409.87 68.91C421.2 68.91 425.79 75.48 425.79 84.83Z" />
	<path id="&lt;Compound Path&gt;" fill-rule="evenodd" class="shp2" d="M484.28 69.81L484.28 114.6C484.28 128 477.54 136.36 457.39 136.36C452.99 136.36 447.5 135.91 443.54 135.19L443.54 124.85C447.32 125.75 452.27 126.29 456.4 126.29C466.92 126.29 471.33 123.32 471.33 114.06L471.33 111.45C469.35 115.77 465.4 118.37 456.67 118.37C440.93 118.37 436.98 108.48 436.98 93.64C436.98 80.33 440.93 68.91 456.67 68.91C465.49 68.91 469.44 71.52 471.33 76.01L471.33 69.81L484.28 69.81ZM471.96 93.64C471.96 84.38 470.25 78.62 460.54 78.62C451.46 78.62 450.38 85.82 450.38 93.64C450.38 102.01 451.64 108.84 460.54 108.84C470.25 108.84 471.96 103.26 471.96 93.64Z" />
	<path id="&lt;Compound Path&gt;" fill-rule="evenodd" class="shp2" d="M534.57 96.97L503.27 98.95C503.72 105.87 507.77 109.02 516.4 109.02C522.43 109.02 529.35 107.31 532.5 105.6L532.5 115.86C529.62 117.57 522.34 119.27 513.88 119.27C499.05 119.27 490.23 113.79 490.23 94.09C490.23 74.4 499.05 68.91 514.25 68.91C531.15 68.91 535.02 77.72 535.02 90.22C535.02 93.01 534.75 95.62 534.57 96.97ZM523.15 88.34C523.15 83.03 521.89 78.71 514.25 78.71C506.15 78.71 503.63 82.13 503.27 89.86L523.15 88.34Z" />
	<path id="&lt;Path&gt;" class="shp2" d="M541.84 106.32L541.84 50.02L554.88 50.02L554.88 103.18C554.88 107.49 555.96 108.57 558.93 108.57C559.64 108.57 560.45 108.57 561.53 108.3L561.53 118.38C559.82 118.73 558.03 118.91 555.96 118.91C545.17 118.91 541.84 114.96 541.84 106.32Z" />
	<path id="&lt;Path&gt;" class="shp2" d="M568.55 117.39L568.55 106.5C573.22 107.94 578.8 108.75 583.2 108.75C588.78 108.75 591.3 107.76 591.3 103.9C591.3 99.94 589.77 99.04 581.95 97.15C571.6 94.63 569.09 91.57 569.09 83.39C569.09 74.22 574.39 68.91 588.51 68.91C593.82 68.91 599.21 69.63 601.82 70.53L601.28 80.51C598.67 79.7 593.28 78.71 588.96 78.71C583.02 78.71 581.32 79.88 581.32 83.21C581.32 86.27 582.67 86.72 590.31 88.7C600.92 91.39 603.71 94.54 603.71 103.54C603.71 114.96 596.43 118.91 583.92 118.91C578.35 118.91 572.86 118.37 568.55 117.39Z" />
	<path id="&lt;Compound Path&gt;" class="shp2" d="M611.54 69.81L624.58 69.81L624.58 118.37L611.54 118.37L611.54 69.81ZM610.82 56.14C610.82 50.02 612.26 49.4 618.11 49.4C624.05 49.4 625.39 50.02 625.39 56.14C625.39 62.34 624.05 63.07 618.11 63.07C612.26 63.07 610.82 62.34 610.82 56.14Z" />
	<path id="&lt;Path&gt;" class="shp2" d="M677.3 85.19L677.3 118.38L664.26 118.38L664.26 88.61C664.26 82.04 662.73 79.52 656.35 79.52C650.95 79.52 647.44 81.23 646 86.18L646 118.38L632.96 118.38L632.96 69.81L646 69.81L646 75.66C648.61 71.07 654.19 68.91 661.2 68.91C673.25 68.91 677.3 74.49 677.3 85.19Z" />
	<path id="&lt;Path&gt; copy" class="shp0" d="M-1525.21 13.75L-1464.36 41.12C-1483.63 56.47 -1496.5 72.61 -1502.96 89.53C-1498.31 69.4 -1490.03 53.94 -1478.13 43.17L-1522.56 21.95L-1524.63 26.29L-1530.45 23.46L-1525.21 13.75Z" />
	<path id="&lt;Path&gt; copy 2" class="shp1" d="M-1574.62 28.58L-1517.77 53.12C-1523.38 62.36 -1527.09 75.34 -1528.9 92.06C-1530.19 91.38 -1531.4 90.84 -1532.52 90.44C-1533.9 83.84 -1532.52 72.49 -1528.38 56.37L-1570.29 37.51C-1570.98 44.7 -1571.26 52.68 -1571.13 61.44C-1572.68 59.75 -1574.06 58.16 -1575.27 56.68C-1575.91 47.23 -1575.7 37.87 -1574.62 28.58Z" />
	<path id="&lt;Path&gt; copy 3" class="shp0" d="M-1561 81.1C-1524.35 111.16 -1471.18 117.4 -1489.54 74.92C-1467.37 117.57 -1507.06 115.95 -1520.58 113.5C-1534.11 111.04 -1554.95 100.53 -1570.45 88.15C-1585.95 75.76 -1600.69 54.81 -1600 39.24C-1599.31 23.68 -1586.88 18.08 -1563.92 21.94C-1599.25 17.94 -1597.66 51.05 -1561 81.1Z" />
	<path id="&lt;Path&gt; copy 4" class="shp2" d="M-1547.97 35.51L-1554.76 32.38L-1549.46 20.08L-1493.01 46.24C-1503.35 56.94 -1510.98 72.71 -1515.9 93.57C-1516.24 93.45 -1516.65 93.35 -1517.13 93.27C-1515.79 75.02 -1511.89 60.35 -1505.42 49.26L-1545 29.61L-1547.97 35.51Z" />
	<path id="&lt;Path&gt; copy 5" class="shp0" d="M-1437.33 111.9L-1437.33 118.46C-1439.22 118.73 -1440.75 118.92 -1442.82 118.92C-1453.52 118.92 -1457.39 116.31 -1457.39 103.54L-1457.39 76.29L-1464.58 76.29L-1464.58 69.81L-1457.39 69.81L-1457.39 58.3L-1449.65 58.3L-1449.65 69.81L-1437.6 69.81L-1437.6 76.29L-1449.65 76.29L-1449.65 103.09C-1449.65 110.64 -1448.57 112.44 -1442.64 112.44C-1440.48 112.44 -1439.04 112.26 -1437.33 111.9Z" />
	<path id="&lt;Compound Path&gt; copy" fill-rule="evenodd" class="shp0" d="M-1390.47 94.9L-1423.39 96.97C-1423.3 107.58 -1419.61 112.44 -1407.83 112.44C-1402.52 112.44 -1396.32 111.09 -1392.63 109.29L-1392.63 116.4C-1395.42 117.83 -1402.07 119.27 -1409 119.27C-1423.3 119.27 -1431.48 113.43 -1431.48 94.09C-1431.48 74.76 -1423.3 68.91 -1409.45 68.91C-1392.9 68.91 -1390.02 79.79 -1390.02 89.24C-1390.02 90.58 -1390.2 92.65 -1390.47 94.9ZM-1397.67 89.33C-1397.67 81.86 -1398.93 75.3 -1409.45 75.3C-1420.6 75.3 -1423.12 81.32 -1423.39 91.21L-1397.67 89.33Z" />
	<path id="&lt;Path&gt; copy 6" class="shp0" d="M-1345.07 118.37L-1355.05 118.37L-1372.77 95.71L-1375.38 95.71L-1375.38 118.37L-1383.11 118.37L-1383.11 50.02L-1375.38 50.02L-1375.38 89.68L-1372.59 89.68L-1355.77 69.81L-1346.15 69.81L-1366.56 92.38L-1345.07 118.37Z" />
	<path id="&lt;Path&gt; copy 7" class="shp0" d="M-1338.35 108.57L-1338.35 50.02L-1330.62 50.02L-1330.62 106.59C-1330.62 111.45 -1329.27 112.44 -1326.12 112.44C-1325.04 112.44 -1323.69 112.35 -1322.43 111.99L-1322.43 118.37C-1323.87 118.73 -1325.4 118.91 -1327.56 118.91C-1334.75 118.91 -1338.35 115.86 -1338.35 108.57Z" />
	<path id="&lt;Compound Path&gt; copy 2" class="shp0" d="M-1315.17 69.81L-1307.43 69.81L-1307.43 118.37L-1315.17 118.37L-1315.17 69.81ZM-1315.89 56.32C-1315.89 52.27 -1314.63 51.73 -1311.21 51.73C-1307.97 51.73 -1306.63 52.27 -1306.63 56.32C-1306.63 60.28 -1307.97 60.91 -1311.21 60.91C-1314.63 60.91 -1315.89 60.28 -1315.89 56.32Z" />
	<path id="&lt;Path&gt; copy 8" class="shp0" d="M-1284.08 69.81L-1272.65 69.81L-1272.65 76.19L-1284.08 76.19L-1284.08 118.37L-1291.81 118.37L-1291.81 76.19L-1299.9 76.19L-1299.9 69.81L-1291.81 69.81L-1291.81 69.36C-1291.81 52.54 -1285.33 49.66 -1275.44 49.66C-1273.64 49.66 -1271.75 49.84 -1270.05 50.11L-1270.05 56.32C-1271.39 56.05 -1273.37 55.87 -1275.44 55.87C-1282.1 55.87 -1283.99 58.75 -1284.08 69.81Z" />
	<path id="&lt;Compound Path&gt; copy 3" class="shp0" d="M-1263.69 69.81L-1255.95 69.81L-1255.95 118.37L-1263.69 118.37L-1263.69 69.81ZM-1264.41 56.32C-1264.41 52.27 -1263.15 51.73 -1259.73 51.73C-1256.49 51.73 -1255.15 52.27 -1255.15 56.32C-1255.15 60.28 -1256.49 60.91 -1259.73 60.91C-1263.15 60.91 -1264.41 60.28 -1264.41 56.32Z" />
	<path id="&lt;Path&gt; copy 9" class="shp0" d="M-1180.21 84.83L-1180.21 118.38L-1187.94 118.38L-1187.94 87.62C-1187.94 80.15 -1190.01 75.84 -1197.3 75.84C-1202.96 75.84 -1207.82 77.45 -1209.89 84.38L-1209.89 84.74L-1209.89 118.38L-1217.62 118.38L-1217.62 87.62C-1217.62 80.15 -1219.42 75.84 -1226.53 75.84C-1232.55 75.84 -1236.96 77.18 -1239.38 84.65L-1239.38 118.38L-1247.12 118.38L-1247.12 69.81L-1239.38 69.81L-1239.38 76.2C-1236.42 70.44 -1231.2 68.91 -1225.36 68.91C-1217.71 68.91 -1213.31 71.97 -1211.24 76.82C-1208.36 70.53 -1202.06 68.91 -1196.13 68.91C-1184.8 68.91 -1180.21 75.48 -1180.21 84.83Z" />
	<path id="&lt;Compound Path&gt; copy 4" fill-rule="evenodd" class="shp2" d="M-1121.72 69.81L-1121.72 114.6C-1121.72 128 -1128.46 136.36 -1148.61 136.36C-1153.01 136.36 -1158.5 135.91 -1162.46 135.19L-1162.46 124.85C-1158.68 125.75 -1153.73 126.29 -1149.6 126.29C-1139.08 126.29 -1134.67 123.32 -1134.67 114.06L-1134.67 111.45C-1136.65 115.77 -1140.6 118.37 -1149.33 118.37C-1165.07 118.37 -1169.02 108.48 -1169.02 93.64C-1169.02 80.33 -1165.07 68.91 -1149.33 68.91C-1140.51 68.91 -1136.56 71.52 -1134.67 76.01L-1134.67 69.81L-1121.72 69.81ZM-1134.04 93.64C-1134.04 84.38 -1135.75 78.62 -1145.46 78.62C-1154.54 78.62 -1155.62 85.82 -1155.62 93.64C-1155.62 102.01 -1154.36 108.84 -1145.46 108.84C-1135.75 108.84 -1134.04 103.26 -1134.04 93.64Z" />
	<path id="&lt;Compound Path&gt; copy 5" fill-rule="evenodd" class="shp2" d="M-1071.43 96.97L-1102.73 98.95C-1102.28 105.87 -1098.23 109.02 -1089.6 109.02C-1083.57 109.02 -1076.65 107.31 -1073.5 105.6L-1073.5 115.86C-1076.38 117.57 -1083.66 119.27 -1092.12 119.27C-1106.95 119.27 -1115.77 113.79 -1115.77 94.09C-1115.77 74.4 -1106.95 68.91 -1091.75 68.91C-1074.85 68.91 -1070.98 77.72 -1070.98 90.22C-1070.98 93.01 -1071.25 95.62 -1071.43 96.97ZM-1082.85 88.34C-1082.85 83.03 -1084.11 78.71 -1091.75 78.71C-1099.85 78.71 -1102.37 82.13 -1102.73 89.86L-1082.85 88.34Z" />
	<path id="&lt;Path&gt; copy 10" class="shp2" d="M-1064.16 106.32L-1064.16 50.02L-1051.12 50.02L-1051.12 103.18C-1051.12 107.49 -1050.04 108.57 -1047.07 108.57C-1046.36 108.57 -1045.55 108.57 -1044.47 108.3L-1044.47 118.38C-1046.18 118.73 -1047.97 118.91 -1050.04 118.91C-1060.83 118.91 -1064.16 114.96 -1064.16 106.32Z" />
	<path id="&lt;Path&gt; copy 11" class="shp2" d="M-1037.45 117.39L-1037.45 106.5C-1032.78 107.94 -1027.2 108.75 -1022.8 108.75C-1017.22 108.75 -1014.7 107.76 -1014.7 103.9C-1014.7 99.94 -1016.23 99.04 -1024.05 97.15C-1034.4 94.63 -1036.91 91.57 -1036.91 83.39C-1036.91 74.22 -1031.61 68.91 -1017.49 68.91C-1012.18 68.91 -1006.79 69.63 -1004.18 70.53L-1004.72 80.51C-1007.33 79.7 -1012.72 78.71 -1017.04 78.71C-1022.98 78.71 -1024.68 79.88 -1024.68 83.21C-1024.68 86.27 -1023.33 86.72 -1015.69 88.7C-1005.08 91.39 -1002.29 94.54 -1002.29 103.54C-1002.29 114.96 -1009.57 118.91 -1022.08 118.91C-1027.65 118.91 -1033.14 118.37 -1037.45 117.39Z" />
	<path id="&lt;Compound Path&gt; copy 6" class="shp2" d="M-994.46 69.81L-981.42 69.81L-981.42 118.37L-994.46 118.37L-994.46 69.81ZM-995.18 56.14C-995.18 50.02 -993.74 49.4 -987.89 49.4C-981.95 49.4 -980.61 50.02 -980.61 56.14C-980.61 62.34 -981.95 63.07 -987.89 63.07C-993.74 63.07 -995.18 62.34 -995.18 56.14Z" />
	<path id="&lt;Path&gt; copy 12" class="shp2" d="M-928.7 85.19L-928.7 118.38L-941.74 118.38L-941.74 88.61C-941.74 82.04 -943.27 79.52 -949.65 79.52C-955.05 79.52 -958.56 81.23 -960 86.18L-960 118.38L-973.04 118.38L-973.04 69.81L-960 69.81L-960 75.66C-957.39 71.07 -951.81 68.91 -944.8 68.91C-932.75 68.91 -928.7 74.49 -928.7 85.19Z" />
</svg>